<svg xmlns="http://www.w3.org/2000/svg" xmlns:xlink="http://www.w3.org/1999/xlink" width="202.999" height="48.057" viewBox="0 0 202.999 48.057">
  <defs>
    <linearGradient id="linear-gradient" x1="-0.433" y1="0.5" x2="1.08" y2="0.5" gradientUnits="objectBoundingBox">
      <stop offset="0" stop-color="#dbe0eb"/>
      <stop offset="1" stop-color="#fff"/>
    </linearGradient>
    <clipPath id="clip-path">
      <path id="Path_7" data-name="Path 7" d="M9.224,106.435a4,4,0,0,0-.878,1.151L0,123.7H3.441l6.927-13.221,2.676,5.147H8.976l-1.619,3.083h7.287l2.588,4.99,3.441.027L12.53,107.586a4.029,4.029,0,0,0-.877-1.175,1.854,1.854,0,0,0-1.214-.574,1.948,1.948,0,0,0-1.215.6" transform="translate(0 -105.837)" fill="url(#linear-gradient)"/>
    </clipPath>
    <clipPath id="clip-path-2">
      <path id="Path_8" data-name="Path 8" d="M45.219,105.693v9.826q0,2.846-1.544,3.995a6.516,6.516,0,0,1-3.864.915,10.436,10.436,0,0,1-4.409-.653q-1.933-1.045-1.934-4.257v-9.826h-2.7v9.826q0,4.31,2.25,6.292,1.98,1.73,5.864,1.725h.933q3.887,0,5.862-1.725,2.252-1.98,2.25-6.292v-9.826Z" transform="translate(-30.763 -105.693)" fill="url(#linear-gradient)"/>
    </clipPath>
    <clipPath id="clip-path-3">
      <path id="Path_9" data-name="Path 9" d="M101.673,105.874v7.315H92.105v3.1h9.568v7.422h2.838v-17.84Z" transform="translate(-92.105 -105.874)" fill="url(#linear-gradient)"/>
    </clipPath>
    <clipPath id="clip-path-4">
      <rect id="Rectangle_11" data-name="Rectangle 11" width="2.84" height="17.839" fill="url(#linear-gradient)"/>
    </clipPath>
    <clipPath id="clip-path-5">
      <path id="Path_10" data-name="Path 10" d="M116.1,105.874v17.84h14.053V120.6H118.939V105.874Z" transform="translate(-116.1 -105.874)" fill="url(#linear-gradient)"/>
    </clipPath>
    <clipPath id="clip-path-6">
      <path id="Path_11" data-name="Path 11" d="M140.669,105.693v17.843h14.079v-3.107H143.507V108.8h11.241v-3.11Z" transform="translate(-140.669 -105.693)" fill="url(#linear-gradient)"/>
    </clipPath>
    <clipPath id="clip-path-7">
      <rect id="Rectangle_15" data-name="Rectangle 15" width="9.305" height="3.112" fill="url(#linear-gradient)"/>
    </clipPath>
    <clipPath id="clip-path-8">
      <path id="Path_12" data-name="Path 12" d="M165.415,105.874v3.106h6.443v14.734h2.813V108.98h6.42v-3.106Z" transform="translate(-165.415 -105.874)" fill="url(#linear-gradient)"/>
    </clipPath>
    <clipPath id="clip-path-9">
      <path id="Path_13" data-name="Path 13" d="M59.8,105.874v3.106h6.441v14.734H69.06V108.98h6.418v-3.106Z" transform="translate(-59.804 -105.874)" fill="url(#linear-gradient)"/>
    </clipPath>
    <clipPath id="clip-path-10">
      <path id="Path_14" data-name="Path 14" d="M192.282,105.693v17.843h14.076v-3.107H195.119V108.8h11.239v-3.11Z" transform="translate(-192.282 -105.693)" fill="url(#linear-gradient)"/>
    </clipPath>
    <clipPath id="clip-path-11">
      <rect id="Rectangle_20" data-name="Rectangle 20" width="9.303" height="3.112" fill="url(#linear-gradient)"/>
    </clipPath>
  </defs>
  <g id="Logo_White" data-name="Logo White" transform="translate(-15 -10)">
    <g id="Group_1028" data-name="Group 1028" transform="translate(-151 -5)">
      <path id="Path_1" data-name="Path 1" d="M13.9,34.074C9.856,27.925,6.953,19.1,8.719,6.748A114.255,114.255,0,0,1,27.246,4.734,114.188,114.188,0,0,1,45.771,6.748a47.7,47.7,0,0,1,.376,10.75,12.7,12.7,0,0,0,3.486-6.879,59.934,59.934,0,0,0-.558-6.063A132.392,132.392,0,0,0,27.529,2.214,132.392,132.392,0,0,0,5.983,4.557C3.58,21.338,8.6,32.534,14.483,39.7A10.849,10.849,0,0,1,13.9,34.074Z" transform="translate(160.632 12.786)" fill="url(#linear-gradient)"/>
      <path id="Path_2" data-name="Path 2" d="M42.038,50.292c-8.656,1.867-7.408,7.584-7.408,7.584,2.822-4.3,12.584-5.252,16.349-6C66.221,48.61,64.9,39.554,64.9,39.554,61.045,45.9,50.694,48.422,42.038,50.292Z" transform="translate(146.545 -5.228)" fill="url(#linear-gradient)"/>
      <path id="Path_3" data-name="Path 3" d="M43.275,43.134c-9.786,1.59-12.515,4.577-12.515,4.577A97.52,97.52,0,0,0,44.311,46.4c.88-.09,1.7-.217,2.468-.367a37.6,37.6,0,0,1-9.574,7.24,44.832,44.832,0,0,1-5.948-3.911c-1.147-1.08-2.579-2.174-2-4.9s1.9-4.827,16.393-8.316c21.916-5.276,14.4-18.976,14.4-18.976.861,4.469-2.348,8.488-6.165,11.186-3.721,2.63-6.608,3.505-11.964,4.312-8.779,1.32-13.045,3.478-15.282,8.562-1.906,6.141.957,9.6,3.512,11.365a44.605,44.605,0,0,0,7.345,4.888A42.53,42.53,0,0,0,52.747,43.94c4.227-2.4,5.018-5.567,5.018-5.567C57.576,38.747,53.059,41.548,43.275,43.134Z" transform="translate(150.673 5.568)" fill="url(#linear-gradient)"/>
      <path id="Path_4" data-name="Path 4" d="M47.88,29.554A25.205,25.205,0,0,0,45.165,17.49a3.132,3.132,0,0,0,1.156-3.082c0,1.507-6.639.932-11.041,1.864s-3.608,2.863-3.608,2.863-2.959.717-3.394,2.721c-.358,3.508,1.517,4.01,1.517,4.01.577-3.651,8.3-3.292,10.536-1.432,2.353,2.4.1,6.2-.215,6.709,1.186-.26,2.524-.52,4.076-.776A30.481,30.481,0,0,0,47.88,29.554Zm-10.074-10.2c-.145.573-1.516,1.791-3.611.071a5.058,5.058,0,0,0,.753.054,2.31,2.31,0,0,0,2.062-.841c.651-1.144,2.022-.143,2.022-.143S37.948,18.777,37.806,19.349Z" transform="translate(149.602 6.903)" fill="url(#linear-gradient)"/>
      <path id="Path_5" data-name="Path 5" d="M37.6,39.953a8.078,8.078,0,0,0,1.1-4.23c-.1-2.8-3.672-3.259-5.991-3.259a16.4,16.4,0,0,0-1.947.11,3.624,3.624,0,0,1,3.463,1.932c.578,2.434-1.01,3.081-1.01,3.081s-5.556,2.075-7.649,5.582c-3.414,7.124-.3,12.377-.084,12.727-.132-.214-1.32-2.31-.638-6.639A9.587,9.587,0,0,1,29.408,43.1,25.845,25.845,0,0,1,37.6,39.953Z" transform="translate(151.656 -1.808)" fill="url(#linear-gradient)"/>
      <path id="Path_6" data-name="Path 6" d="M74.59,20.914a11.154,11.154,0,0,1-7.506,7.159,25.1,25.1,0,0,1,.3,4.293l.006.073a14.692,14.692,0,0,0,1.7-.69C75.526,28.17,74.59,20.914,74.59,20.914Z" transform="translate(130.857 3.764)" fill="url(#linear-gradient)"/>
    </g>
    <g id="Group_1029" data-name="Group 1029" transform="translate(-58 -5)">
      <g id="Group_14" data-name="Group 14" transform="translate(120 30.106)">
        <g id="Group_13" data-name="Group 13" transform="translate(0 0)" clip-path="url(#clip-path)">
          <rect id="Rectangle_7" data-name="Rectangle 7" width="27.251" height="27.287" transform="matrix(0.701, -0.714, 0.714, 0.701, -8.945, 9.113)" fill="url(#linear-gradient)"/>
        </g>
      </g>
      <g id="Group_16" data-name="Group 16" transform="translate(142.706 30)">
        <g id="Group_15" data-name="Group 15" transform="translate(0)" clip-path="url(#clip-path-2)">
          <rect id="Rectangle_8" data-name="Rectangle 8" width="24.621" height="24.703" transform="translate(-8.794 7.42) rotate(-40.156)" fill="url(#linear-gradient)"/>
        </g>
      </g>
      <g id="Group_18" data-name="Group 18" transform="translate(187.982 30.134)">
        <g id="Group_17" data-name="Group 17" transform="translate(0 0)" clip-path="url(#clip-path-3)">
          <rect id="Rectangle_9" data-name="Rectangle 9" width="21.114" height="21.581" transform="matrix(0.749, -0.663, 0.663, 0.749, -8.854, 7.84)" fill="url(#linear-gradient)"/>
        </g>
      </g>
      <g id="Group_20" data-name="Group 20" transform="translate(183.854 30.134)">
        <g id="Group_19" data-name="Group 19" transform="translate(0 0)" clip-path="url(#clip-path-4)">
          <rect id="Rectangle_10" data-name="Rectangle 10" width="14.105" height="15.107" transform="translate(-8.88 8.078) rotate(-42.292)" fill="url(#linear-gradient)"/>
        </g>
      </g>
      <g id="Group_22" data-name="Group 22" transform="translate(205.693 30.134)">
        <g id="Group_21" data-name="Group 21" transform="translate(0 0)" clip-path="url(#clip-path-5)">
          <rect id="Rectangle_12" data-name="Rectangle 12" width="14.053" height="17.84" transform="translate(0 0)" fill="url(#linear-gradient)"/>
        </g>
      </g>
      <g id="Group_24" data-name="Group 24" transform="translate(223.827 30)">
        <g id="Group_23" data-name="Group 23" transform="translate(0)" clip-path="url(#clip-path-6)">
          <rect id="Rectangle_13" data-name="Rectangle 13" width="22.389" height="22.685" transform="translate(-8.866 7.93) rotate(-41.811)" fill="url(#linear-gradient)"/>
        </g>
      </g>
      <g id="Group_26" data-name="Group 26" transform="translate(227.86 37.236)">
        <g id="Group_25" data-name="Group 25" transform="translate(0)" clip-path="url(#clip-path-7)">
          <rect id="Rectangle_14" data-name="Rectangle 14" width="9.01" height="8.523" transform="matrix(0.745, -0.667, 0.667, 0.745, -1.546, 1.383)" fill="url(#linear-gradient)"/>
        </g>
      </g>
      <g id="Group_28" data-name="Group 28" transform="translate(242.092 30.134)">
        <g id="Group_27" data-name="Group 27" transform="translate(0 0)" clip-path="url(#clip-path-8)">
          <rect id="Rectangle_16" data-name="Rectangle 16" width="23.385" height="23.723" transform="matrix(0.781, -0.625, 0.625, 0.781, -8.702, 6.962)" fill="url(#linear-gradient)"/>
        </g>
      </g>
      <g id="Group_30" data-name="Group 30" transform="translate(164.142 30.134)">
        <g id="Group_29" data-name="Group 29" transform="translate(0 0)" clip-path="url(#clip-path-9)">
          <rect id="Rectangle_17" data-name="Rectangle 17" width="23.384" height="23.722" transform="translate(-8.702 6.962) rotate(-38.66)" fill="url(#linear-gradient)"/>
        </g>
      </g>
      <g id="Group_32" data-name="Group 32" transform="translate(261.923 30)">
        <g id="Group_31" data-name="Group 31" transform="translate(0)" clip-path="url(#clip-path-10)">
          <rect id="Rectangle_18" data-name="Rectangle 18" width="22.387" height="22.683" transform="translate(-8.866 7.93) rotate(-41.811)" fill="url(#linear-gradient)"/>
        </g>
      </g>
      <g id="Group_34" data-name="Group 34" transform="translate(265.958 37.236)">
        <g id="Group_33" data-name="Group 33" transform="translate(0)" clip-path="url(#clip-path-11)">
          <rect id="Rectangle_19" data-name="Rectangle 19" width="9.009" height="8.521" transform="translate(-1.546 1.383) rotate(-41.81)" fill="url(#linear-gradient)"/>
        </g>
      </g>
    </g>
  </g>
</svg>
