<svg id="Layer_1" data-name="Layer 1" xmlns="http://www.w3.org/2000/svg" xmlns:xlink="http://www.w3.org/1999/xlink" viewBox="0 0 96.38 96.38"><defs><style>.cls-1{fill:url(#New_Gradient_Swatch_1);}.cls-2{fill:url(#New_Gradient_Swatch_1-2);}.cls-3{fill:url(#New_Gradient_Swatch_1-3);}.cls-4{fill:url(#New_Gradient_Swatch_1-4);}.cls-5{fill:url(#New_Gradient_Swatch_1-5);}.cls-6{fill:url(#New_Gradient_Swatch_1-6);}</style><linearGradient id="New_Gradient_Swatch_1" x1="-31.69" y1="38.42" x2="97.69" y2="38.42" gradientUnits="userSpaceOnUse"><stop offset="0" stop-color="#192c58"/><stop offset="1" stop-color="#1566b0"/></linearGradient><linearGradient id="New_Gradient_Swatch_1-2" x1="9.15" y1="57.26" x2="97.9" y2="57.26" xlink:href="#New_Gradient_Swatch_1"/><linearGradient id="New_Gradient_Swatch_1-3" x1="-3.52" y1="56.12" x2="99.59" y2="56.12" xlink:href="#New_Gradient_Swatch_1"/><linearGradient id="New_Gradient_Swatch_1-4" x1="25.55" y1="-8.11" x2="82.63" y2="82.26" xlink:href="#New_Gradient_Swatch_1"/><linearGradient id="New_Gradient_Swatch_1-5" x1="11.65" y1="55.1" x2="54.68" y2="55.1" xlink:href="#New_Gradient_Swatch_1"/><linearGradient id="New_Gradient_Swatch_1-6" x1="120.59" y1="41.5" x2="60.22" y2="29.08" xlink:href="#New_Gradient_Swatch_1"/></defs><title>アートボード 1</title><path class="cls-1" d="M21.85,63.77C14,51.89,8.43,34.83,11.84,11a219.71,219.71,0,0,1,35.8-3.9A219.42,219.42,0,0,1,83.43,11a92.2,92.2,0,0,1,.73,20.77c5.08-5.54,6.4-10.68,6.74-13.3-.16-3.74-.5-7.63-1.08-11.71A256.36,256.36,0,0,0,48.19,2.21,256.08,256.08,0,0,0,6.56,6.74C1.91,39.16,11.61,60.8,23,74.63A21,21,0,0,1,21.85,63.77Z"/><path class="cls-2" d="M49,60.3C32.28,63.91,34.69,75,34.69,75,40.14,66.66,59,64.81,66.28,63.37c29.45-6.32,26.9-23.82,26.9-23.82C85.73,51.82,65.73,56.69,49,60.3Z"/><path class="cls-3" d="M59.37,67.33c-18.91,3.07-24.18,8.84-24.18,8.84a188.6,188.6,0,0,0,26.18-2.52c1.7-.18,3.28-.42,4.77-.71a72.81,72.81,0,0,1-18.5,14c-2.1-1.14-9.28-5.47-11.49-7.56s-5-4.2-3.88-9.46S36,60.58,64,53.84c42.34-10.19,27.81-36.67,27.81-36.67,1.67,8.64-4.53,16.41-11.91,21.62-7.19,5.08-12.77,6.77-23.12,8.33-17,2.55-25.2,6.72-29.52,16.54-3.68,11.87,1.85,18.54,6.78,22a86.67,86.67,0,0,0,14.2,9.45A82.3,82.3,0,0,0,77.67,68.89c8.17-4.64,9.69-10.76,9.69-10.76C87,58.85,78.27,64.27,59.37,67.33Z"/><path class="cls-4" d="M66.19,43.67A48.75,48.75,0,0,0,61,20.36a6,6,0,0,0,2.23-5.95c0,2.91-12.83,1.8-21.33,3.6s-7,5.53-7,5.53-5.72,1.39-6.56,5.26c-.69,6.78,2.93,7.75,2.93,7.75,1.12-7.06,16-6.37,20.36-2.77,4.55,4.64.2,12-.42,13,2.29-.5,4.88-1,7.88-1.5A58,58,0,0,0,66.19,43.67ZM46.73,24c-.28,1.1-2.93,3.45-7,.13a9.42,9.42,0,0,0,1.46.11c1.33,0,3.21-.27,4-1.63,1.26-2.21,3.91-.27,3.91-.27S47,22.85,46.73,24Z"/><path class="cls-5" d="M50.3,46.93c.53-.54,2.12-4,2.12-8.17-.18-5.41-7.09-6.3-11.57-6.3a30.4,30.4,0,0,0-3.76.22,7,7,0,0,1,6.69,3.73c1.11,4.7-2,6-2,6s-10.73,4-14.77,10.79c-6.6,13.76-.59,23.91-.17,24.59-.25-.42-2.55-4.47-1.23-12.83,1-5.4,4.89-9.5,8.82-11.9C38.88,50.32,43.37,48.54,50.3,46.93Z"/><path class="cls-6" d="M81.59,20.91A21.56,21.56,0,0,1,67.08,34.75,48,48,0,0,1,67.67,43v.14A28.59,28.59,0,0,0,71,41.85C83.4,34.93,81.59,20.91,81.59,20.91Z"/></svg>