<?xml version="1.0" encoding="utf-8"?>
<!-- Generator: Adobe Illustrator 14.0.0, SVG Export Plug-In . SVG Version: 6.00 Build 43363)  -->
<!DOCTYPE svg PUBLIC "-//W3C//DTD SVG 1.1//EN" "http://www.w3.org/Graphics/SVG/1.1/DTD/svg11.dtd">
<svg version="1.1" id="Layer_1" xmlns="http://www.w3.org/2000/svg" xmlns:xlink="http://www.w3.org/1999/xlink" x="0px" y="0px"
	 width="1200px" height="1200px" viewBox="0 0 1200 1200" enable-background="new 0 0 1200 1200" xml:space="preserve">
<g>
	<path fill="#FFFFFF" d="M270.354,782.297c-92.261-140.318-158.566-341.75-118.216-623.501
		c76.528-14.57,248.916-43.456,422.769-45.956c173.821,2.5,346.112,31.386,422.642,45.956
		c12.897,89.824,14.713,171.193,8.535,245.301c60.031-65.413,75.668-126.098,79.585-156.974
		c-1.784-44.204-5.891-90.191-12.771-138.343c-89.014-16.943-289.362-50.574-491.591-53.44
		c-202.229,2.866-402.609,36.497-491.623,53.44c-54.777,382.928,59.618,638.375,193.949,801.781
		C262.742,852.838,265.895,806.883,270.354,782.297z"/>
	<path fill="#FFFFFF" d="M590.989,741.324c-197.547,42.598-169.107,173.074-169.107,173.074
		c64.426-98.058,287.164-119.855,373.088-136.88c347.738-74.569,317.738-281.208,317.738-281.208
		C1024.683,641.15,788.44,698.65,590.989,741.324z"/>
	<path fill="#FFFFFF" d="M713.314,824.352c-223.248,36.273-285.478,104.427-285.478,104.427s150.254-2.166,309.17-29.857
		c20.128-2.07,38.694-4.967,56.308-8.358c-90.319,95.159-182.549,145.7-218.408,165.223
		c-24.904-13.455-109.618-64.666-135.828-89.269c-26.083-24.647-58.821-49.602-45.637-111.78
		c13.058-61.992,43.313-110.146,374.012-189.746c500.029-120.366,328.47-432.96,328.47-432.96
		c19.683,101.943-53.564,193.663-140.668,255.254c-84.872,59.968-150.795,79.982-272.962,98.375
		c-200.348,30.11-297.673,79.332-348.724,195.367c-43.439,140.127,21.911,218.932,80.127,259.299
		c73.024,59.967,137.355,95.223,167.61,111.561c54.618-29.619,221.051-120.75,348.151-309.172
		c96.466-54.746,114.522-127.021,114.522-127.021C1039.682,724.24,936.593,788.125,713.314,824.352z"/>
	<path fill="#FFFFFF" d="M794.014,544.925c4.904-156.941-62.006-275.271-62.006-275.271c36.274-26.178,26.435-70.318,26.435-70.318
		c0,34.395-151.497,21.257-251.942,42.548c-100.445,21.225-82.325,65.318-82.325,65.318s-67.548,16.369-77.452,62.07
		c-8.248,80.063,34.618,91.512,34.618,91.512c13.121-83.313,189.299-75.111,240.381-32.675
		c53.694,54.776,2.325,141.514-4.936,153.058c27.134-5.924,57.61-11.848,93.024-17.675
		C739.683,558.619,767.9,552.601,794.014,544.925z M564.111,312.092c-3.28,13.073-34.555,40.86-82.39,1.624
		c0,0,7.325,1.227,17.198,1.227c15.701,0,37.897-3.089,47.037-19.188c14.874-26.099,46.146-3.248,46.146-3.248
		S567.391,299.034,564.111,312.092z"/>
	<path fill="#FFFFFF" d="M606.308,583.46c6.18-6.402,25.032-47.516,25.032-96.529c-2.229-63.948-83.822-74.347-136.72-74.347
		c-25.573,0-44.426,2.485-44.426,2.485c42.865,0,62.644,17.944,79.044,44.075c13.217,55.525-23.088,70.287-23.088,70.287
		S379.462,576.804,331.596,656.82c-77.835,162.528-6.784,282.401-1.848,290.396c-3.057-4.903-30.095-52.707-14.521-151.514
		c12.165-63.756,57.643-112.148,104.076-140.492C471.404,623.492,524.396,602.424,606.308,583.46z"/>
	<path fill="#FFFFFF" d="M975.733,276.168c-44.458,133.948-171.114,163.359-171.272,163.359c4.712,29.92,7.516,62.93,6.974,97.945
		l0.159,1.688c13.503-4.586,26.562-9.793,38.758-15.749C997.07,441.741,975.733,276.168,975.733,276.168z"/>
</g>
</svg>
